# AST/ASF file generated using VICON BodyLanguage
# -----------------------------------------------
:version 1.10
:name VICON
:units
  mass 1.0
  length 0.45
  angle deg
:documentation
   .ast/.asf automatically generated from VICON data using
   VICON BodyBuilder and BodyLanguage model FoxedUp or BRILLIANT.MOD
:root
   order TX TY TZ RX RY RZ
   axis XYZ
   position 0 0 0  
   orientation 0 0 0 
:bonedata
  begin
     id 1 
     name lhipjoint
     direction 0.522423 -0.726805 0.445902 
     length 2.25074 
     axis 0 0 0  XYZ
  end
  begin
     id 2 
     name lfemur
     direction 0.34202 -0.939693 0  
     length 6.54609  
     axis 0 0 20  XYZ
    dof rx ry rz
    limits (-160.0 20.0)
           (-70.0 70.0)
           (-60.0 70.0)
  end
  begin
     id 3 
     name ltibia
     direction 0.34202 -0.939693 0   
     length 7.7528   
     axis 0 0 20   XYZ
    dof rx
    limits (-10.0 170.0)
  end
  begin
     id 4 
     name lfoot
     direction 0.143696 -0.394801 0.90746   
     length 1.73269   
     axis -90 7.62852e-016 20   XYZ
    dof rx rz
    limits (-45.0 90.0)
           (-70.0 20.0)
  end
  begin
     id 5 
     name ltoes
     direction 1.53633e-011 -4.21912e-011 1   
     length 0.858383   
     axis -90 7.62852e-016 20   XYZ
    dof rx
    limits (-90.0 20.0)
  end
  begin
     id 6 
     name rhipjoint
     direction -0.515943 -0.73016 0.447961   
     length 2.2404  
     axis 0 0 0  XYZ 
  end
  begin
     id 7 
     name rfemur
     direction -0.34202 -0.939693 0   
     length 6.84377   
     axis 0 0 -20   XYZ
    dof rx ry rz
    limits (-160.0 20.0)
           (-70.0 70.0)
           (-70.0 60.0)
  end
  begin
     id 8 
     name rtibia
     direction -0.34202 -0.939693 0   
     length 7.57596   
     axis 0 0 -20   XYZ
    dof rx
    limits (-10.0 170.0)
 end
 begin
     id 9 
     name rfoot
     direction -0.0999372 -0.274575 0.956358   
     length 1.78783  
     axis -90 -7.62852e-016 -20   XYZ
    dof rx rz
    limits (-45.0 90.0)
           (-20.0 70.0)
  end
  begin
     id 10 
     name rtoes
     direction -1.53535e-011 -4.21895e-011 1   
     length 0.898614   
     axis -90 -7.62852e-016 -20   XYZ
    dof rx
    limits (-90.0 20.0)
  end
  begin
     id 11 
     name lowerback
     direction -0.011775 0.996164 -0.0867116   
     length 1.91499   
     axis 0 0 0   XYZ
    dof rx ry rz
    limits (-20.0 45.0)
           (-30.0 30.0)
           (-30.0 30.0)
  end
  begin
     id 12 
     name upperback
     direction -0.00189771 0.999673 -0.0254833   
     length 1.92213   
     axis 0 0 0   XYZ
    dof rx ry rz
    limits (-20.0 45.0)
           (-30.0 30.0)
           (-30.0 30.0)
  end
  begin
     id 13 
     name thorax
     direction 0.00335995 0.999878 0.0152401   
     length 1.93138   
     axis 0 0 0   XYZ
    dof rx ry rz
    limits (-20.0 45.0)
           (-30.0 30.0)
           (-30.0 30.0)
  end
  begin
     id 14 
     name lowerneck
     direction 0.00233191 0.998509 0.0545404   
     length 1.59408   
     axis 0 0 0   XYZ
    dof rx ry rz
    limits (-20.0 45.0)
           (-30.0 30.0)
           (-30.0 30.0)
  end
  begin
     id 15 
     name upperneck
     direction 0.07881 0.9956 -0.0506934   
     length 1.59344   
     axis 0 0 0   XYZ
    dof rx ry rz
    limits (-20.0 45.0)
           (-30.0 30.0)
           (-30.0 30.0)
  end
  begin
     id 16
     name head
     direction 0.0261681 0.999378 -0.0236299  
     length 1.60935  
     axis 0 0 0   XYZ
    dof rx ry rz
    limits (-20.0 45.0)
           (-30.0 30.0)
           (-30.0 30.0)
  end
  begin
     id 17 
     name lclavicle
     direction 0.96643 0.252035 0.0499195  
     length 3.82153  
     axis 0 0 0   XYZ
    dof ry rz
    limits (-20.0 10.0)
           (0.0 20.0)
  end
  begin
     id 18 
     name lhumerus
     direction 1 -4.48967e-011 -2.01614e-018   
     length 4.87796   
     axis 180 -30 -90   XYZ
    dof rx ry rz
    limits (-60.0 90.0)
           (-90.0 90.0)
           (-90.0 90.0)
  end
  begin
     id 19
     name lradius
     direction 1 -4.48958e-011 3.1409e-027   
     length 3.23169   
     axis 180 -30 -90   XYZ
    dof rx
    limits (-10.0 170.0)
  end
  begin
     id 20
     name lwrist
     direction 1 -4.48924e-011 1.0365e-027   
     length 1.61584   
     axis -2.56395e-016 90 90   XYZ
    dof ry
    limits (-180.0 0.0)
 end
  begin
     id 21 
     name lhand
     direction 1 -4.49055e-011 2.09488e-027   
     length 0.731324   
     axis -1.32723e-015 90 90   XYZ
    dof rx rz
    limits (-90.0 90.0)
           (-45.0 45.0)
  end
  begin
     id 22 
     name lfingers
     direction 1 -4.48935e-011 4.14981e-027   
     length 0.589612   
     axis -2.6545e-015 90 90   XYZ
    dof rx
    limits (0.0 90.0)
  end
  begin
     id 23
     name lthumb
     direction 0.707107 -6.35097e-011 0.707107   
     length 0.846569   
     axis -90 45 5.05613e-014   XYZ
    dof rx rz
    limits (-45.0 45.0)
           (-45.0 45.0)
  end
  begin
     id 24 
     name rclavicle
     direction -0.979337 0.201016 0.0221522   
     length 3.73827  
     axis 0 0 0   XYZ 
    dof ry rz
    limits (-10.0 20.0)
           (-20.0 0.0)
  end
  begin
     id 25 
     name rhumerus
     direction -1 -4.48971e-011 1.65907e-027  
     length 4.9143   
     axis 180 30 90   XYZ
    dof rx ry rz
    limits (-90.0 60.0)
           (-90.0 90.0)
           (-90.0 90.0)
  end
  begin
     id 26 
     name rradius
     direction -1 -4.4894e-011 2.17871e-028   
     length 3.29093   
     axis 180 30 90   XYZ
    dof rx
    limits (-10.0 170.0)
  end
  begin
     id 27 
     name rwrist
     direction -1 -4.48971e-011 1.04038e-027   
     length 1.64546   
     axis -2.56395e-016 -90 -90   XYZ
    dof ry
    limits (-180.0 0.0)
  end
  begin
     id 28
     name rhand
     direction -1 -4.49017e-011 2.08843e-027   
     length 0.54512   
     axis -1.32723e-015 -90 -90   XYZ
    dof rx rz
    limits (-90.0 90.0)
           (-45.0 45.0)
  end
  begin
     id 29
     name rfingers
     direction -1 -4.48918e-011 4.1439e-027   
     length 0.43949   
     axis -2.6545e-015 -90 -90   XYZ
    dof rx
    limits (0.0 90.0)
  end
  begin
     id 30
     name rthumb
     direction -0.707107 -6.35065e-011 0.707107   
     length 0.631022   
     axis -90 -45 -5.05613e-014   XYZ
    dof rx rz
    limits (-45.0 45.0)
           (-45.0 45.0)
  end
:hierarchy
  begin
    root lhipjoint rhipjoint lowerback
    lhipjoint lfemur
    lfemur ltibia
    ltibia lfoot
    lfoot ltoes
    rhipjoint rfemur
    rfemur rtibia
    rtibia rfoot
    rfoot rtoes
    lowerback upperback
    upperback thorax
    thorax lowerneck lclavicle rclavicle
    lowerneck upperneck
    upperneck head
    lclavicle lhumerus
    lhumerus lradius
    lradius lwrist
    lwrist lhand lthumb
    lhand lfingers
    rclavicle rhumerus
    rhumerus rradius
    rradius rwrist
    rwrist rhand rthumb
    rhand rfingers
  end

#!OML:ASF H:\BreakDance\Project 1\Capture day 1\Session 1\Male.ASF
:FULLY-SPECIFIED
:DEGREES
238
root 1.95159 14.1932 -1.14938 23.8925 -88.1922 -27.2555
lowerback 11.2991 0.409884 -0.809791
upperback 4.70769 0.274056 -0.230968
thorax -1.4297 0.0535208 0.18491
lowerneck -6.61803 -2.22567 -4.14488
upperneck 5.41993 -3.44721 10.8492
head 2.95748 -1.4349 3.80684
rclavicle -2.33572e-015 5.36719e-015
rhumerus 18.3352 4.51304 -77.0145
rradius 88.8925
rwrist 6.50799
rhand -1.11431 -50.3442
rfingers 7.12502
rthumb 24.5226 -78.794
lclavicle -2.33572e-015 5.36719e-015
lhumerus 25.0193 -7.16253 78.1024
lradius 80.9203
lwrist -26.5949
lhand 13.1886 -16.4163
lfingers 7.12502
lthumb 38.1439 9.34358
rfemur -37.3941 -20.8345 4.99313
rtibia 69.83
rfoot -25.5219 1.27657
rtoes -14.3149
lfemur -41.1687 20.3348 -7.15654
ltibia 73.1727
lfoot -29.5576 -3.68348
ltoes -16.9069
239
root 1.95291 14.193 -1.14966 24.5711 -88.201 -27.9058
lowerback 11.3142 0.409745 -0.780182
upperback 4.66796 0.278211 -0.234982
thorax -1.47911 0.0569363 0.163464
lowerneck -6.53658 -2.20243 -4.03532
upperneck 5.38615 -3.41693 10.7537
head 2.92796 -1.42412 3.7614
rclavicle -4.96962e-016 -2.38542e-015
rhumerus 18.2603 4.53781 -77.0361
rradius 88.8572
rwrist 6.48529
rhand -1.3089 -50.5332
rfingers 7.12502
rthumb 24.3361 -79.0082
lclavicle -4.96962e-016 -2.38542e-015
lhumerus 24.959 -7.17289 78.1016
lradius 80.9073
lwrist -26.534
lhand 13.2044 -16.4474
lfingers 7.12502
lthumb 38.1589 9.30845
rfemur -37.471 -20.7985 5.02763
rtibia 69.8255
rfoot -25.4879 1.3269
rtoes -13.9946
lfemur -41.2097 20.3526 -7.1462
ltibia 73.1712
lfoot -29.5867 -3.70455
ltoes -17.1196
240
root 1.95134 14.1974 -1.1509 26.7185 -88.214 -30.0683
lowerback 11.2934 0.414049 -0.748577
upperback 4.69019 0.287063 -0.217698
thorax -1.44468 0.0609895 0.162594
lowerneck -6.62981 -2.17316 -4.01407
upperneck 5.4618 -3.38664 10.771
head 2.96371 -1.40374 3.7641
rclavicle -6.5102e-015 5.96354e-016
rhumerus 18.2039 4.60452 -77.0515
rradius 88.8566
rwrist 6.35513
rhand -1.84534 -50.6218
rfingers 7.12502
rthumb 23.8217 -79.1648
lclavicle -6.5102e-015 5.96354e-016
lhumerus 24.9456 -7.14755 78.0953
lradius 80.9278
lwrist -26.5112
lhand 13.3219 -16.4556
lfingers 7.12502
lthumb 38.2698 9.26965
rfemur -37.4702 -20.6944 5.10258
rtibia 69.8052
rfoot -25.4809 1.28324
rtoes -13.9986
lfemur -41.1583 20.419 -7.06867
ltibia 73.1499
lfoot -29.6315 -3.70812
ltoes -17.4304
241
root 1.95137 14.1982 -1.15247 27.0388 -88.1823 -30.4183
lowerback 11.2965 0.413396 -0.720682
upperback 4.72979 0.287084 -0.228241
thorax -1.40499 0.0603498 0.136034
lowerneck -6.73169 -2.18566 -4.01996
upperneck 5.52258 -3.41493 10.8557
head 3.00273 -1.41097 3.78895
rclavicle 5.96354e-016 4.96962e-015
rhumerus 18.1688 4.59034 -77.0823
rradius 88.9067
rwrist 6.34323
rhand -1.90259 -50.5227
rfingers 7.12502
rthumb 23.7668 -79.0729
lclavicle 5.96354e-016 4.96962e-015
lhumerus 24.9752 -7.18009 78.0527
lradius 80.9651
lwrist -26.481
lhand 13.4101 -16.5053
lfingers 7.12502
lthumb 38.353 9.19701
rfemur -37.4274 -20.6647 5.13014
rtibia 69.7897
rfoot -25.466 1.20087
rtoes -14.2488
lfemur -41.1265 20.4077 -7.02526
ltibia 73.134
lfoot -29.6045 -3.72727
ltoes -17.4353
242
root 1.95175 14.1976 -1.15134 25.8372 -88.1761 -29.2205
lowerback 11.2979 0.401189 -0.71436
upperback 4.73461 0.270898 -0.247448
thorax -1.40053 0.0523874 0.114575
lowerneck -6.73574 -2.20354 -4.01258
upperneck 5.53535 -3.44044 10.85
head 3.00895 -1.42322 3.78465
rclavicle -2.98177e-016 9.93923e-015
rhumerus 18.1416 4.58707 -77.0776
rradius 88.9819
rwrist 6.43771
rhand -1.4593 -50.4161
rfingers 7.12502
rthumb 24.1919 -78.9103
lclavicle -2.98177e-016 9.93923e-015
lhumerus 24.9543 -7.18647 78.0487
lradius 80.947
lwrist -26.3455
lhand 13.4274 -16.542
lfingers 7.12502
lthumb 38.3694 9.15577
rfemur -37.4212 -20.7004 5.08622
rtibia 69.7761
rfoot -25.4381 1.2144
rtoes -14.1613
lfemur -41.1281 20.3597 -7.06877
ltibia 73.1221
lfoot -29.5319 -3.78427
ltoes -17.0744
243
root 1.95108 14.2005 -1.14811 25.0408 -88.2451 -28.3997
lowerback 11.2857 0.408457 -0.697075
upperback 4.70527 0.28302 -0.27555
thorax -1.42424 0.0595892 0.0742611
lowerneck -6.68969 -2.19256 -4.0842
upperneck 5.5265 -3.42573 10.9317
head 3.00017 -1.41637 3.82276
rclavicle -1.49089e-015 -1.98785e-016
rhumerus 18.0631 4.60897 -77.058
rradius 89.0576
rwrist 6.44326
rhand -1.24059 -50.4152
rfingers 7.12502
rthumb 24.4016 -78.8813
lclavicle -1.49089e-015 -1.98785e-016
lhumerus 24.8967 -7.22737 78.0573
lradius 80.9196
lwrist -26.1404
lhand 13.3298 -16.466
lfingers 7.12502
lthumb 38.2772 9.2573
rfemur -37.4386 -20.6875 5.0223
rtibia 69.7571
rfoot -25.4494 1.28404
rtoes -13.9225
lfemur -41.1094 20.3604 -7.14217
ltibia 73.095
lfoot -29.4137 -3.8342
ltoes -16.4834
244
root 1.9518 14.2049 -1.14436 19.7855 -88.3315 -23.0909
lowerback 11.2761 0.426867 -0.806683
upperback 4.66905 0.296006 -0.337519
thorax -1.457 0.0662982 0.070157
lowerneck -6.72433 -2.18351 -4.19621
upperneck 5.57951 -3.42034 11.0835
head 3.02597 -1.40884 3.88821
rclavicle 3.72721e-015 -1.78906e-015
rhumerus 18.0156 4.59988 -77.0401
rradius 89.0241
rwrist 6.35483
rhand -1.51263 -50.4969
rfingers 7.12502
rthumb 24.1408 -78.998
lclavicle 3.72721e-015 -1.78906e-015
lhumerus 24.8668 -7.29079 78.0749
lradius 80.8952
lwrist -26.0333
lhand 13.181 -16.4489
lfingers 7.12502
lthumb 38.1367 9.313
rfemur -37.4784 -20.7272 4.8163
rtibia 69.737
rfoot -25.4707 1.38636
rtoes -13.9205
lfemur -41.133 20.3122 -7.38421
ltibia 73.0563
lfoot -29.4077 -3.72332
ltoes -16.4282
245
root 1.95269 14.2065 -1.14334 14.4892 -88.352 -17.7894
lowerback 11.3272 0.421607 -0.937038
upperback 4.6416 0.274144 -0.380722
thorax -1.51358 0.0549365 0.101233
lowerneck -6.79319 -2.17425 -4.24637
upperneck 5.6695 -3.41552 11.1454
head 3.06583 -1.40119 3.91555
rclavicle -3.52843e-015 8.34896e-015
rhumerus 18.029 4.61998 -77.0065
rradius 88.9374
rwrist 6.25853
rhand -1.7708 -50.6134
rfingers 7.12502
rthumb 23.8932 -79.1471
lclavicle -3.52843e-015 8.34896e-015
lhumerus 24.8351 -7.26384 78.0961
lradius 80.8559
lwrist -26.1775
lhand 13.1284 -16.4748
lfingers 7.12502
lthumb 38.0871 9.3007
rfemur -37.4762 -20.7798 4.63808
rtibia 69.7268
rfoot -25.4732 1.4067
rtoes -13.9978
lfemur -41.1432 20.2641 -7.58341
ltibia 73.0342
lfoot -29.53 -3.56412
ltoes -17.0336
246
root 1.95303 14.2059 -1.14421 15.0434 -88.3504 -18.3825
lowerback 11.4161 0.403965 -0.904677
upperback 4.61818 0.252803 -0.388044
thorax -1.58592 0.0450376 0.0777478
lowerneck -6.77589 -2.16588 -4.19182
upperneck 5.6703 -3.4065 11.1022
head 3.06079 -1.39764 3.89372
rclavicle -6.16232e-015 3.57812e-015
rhumerus 18.0041 4.66262 -77.0028
rradius 88.9336
rwrist 6.24693
rhand -1.71865 -50.6736
rfingers 7.12502
rthumb 23.9432 -79.2007
lclavicle -6.16232e-015 3.57812e-015
lhumerus 24.772 -7.20683 78.0852
lradius 80.8867
lwrist -26.466
lhand 13.2365 -16.4118
lfingers 7.12502
lthumb 38.1891 9.33575
rfemur -37.4399 -20.7361 4.65465
rtibia 69.715
rfoot -25.4421 1.34372
rtoes -14.0588
lfemur -41.1038 20.2794 -7.55272
ltibia 73.0256
lfoot -29.6027 -3.52285
ltoes -17.5486
247
root 1.95257 14.2039 -1.14363 16.7674 -88.3763 -20.1225
lowerback 11.4439 0.406183 -0.837359
upperback 4.61129 0.262387 -0.390651
thorax -1.60794 0.0505474 0.0358491
lowerneck -6.75059 -2.16753 -4.12362
upperneck 5.63423 -3.40818 11.049
head 3.0439 -1.40058 3.86603
rclavicle 1.98785e-016 -5.96354e-016
rhumerus 17.9692 4.68579 -77.011
rradius 88.9311
rwrist 6.20435
rhand -1.95576 -50.6862
rfingers 7.12502
rthumb 23.7158 -79.243
lclavicle 1.98785e-016 -5.96354e-016
lhumerus 24.6901 -7.19377 78.0661
lradius 80.9652
lwrist -26.5554
lhand 13.3227 -16.4263
lfingers 7.12502
lthumb 38.2706 9.29878
rfemur -37.4058 -20.69 4.70426
rtibia 69.692
rfoot -25.4299 1.27503
rtoes -14.2699
lfemur -41.0755 20.2976 -7.48149
ltibia 73.0213
lfoot -29.5873 -3.53626
ltoes -17.5426
248
root 1.95106 14.2058 -1.14323 21.1245 -88.3429 -24.5011
lowerback 11.4437 0.405827 -0.699677
upperback 4.61723 0.277376 -0.355781
thorax -1.60121 0.0589666 -0.00739783
lowerneck -6.69057 -2.16272 -4.06605
upperneck 5.55999 -3.39975 11.0239
head 3.00978 -1.39988 3.84946
rclavicle -3.8763e-015 4.17448e-015
rhumerus 17.942 4.67503 -77.0194
rradius 88.8709
rwrist 6.16241
rhand -2.3 -50.688
rfingers 7.12502
rthumb 23.3856 -79.2873
lclavicle -3.8763e-015 4.17448e-015
lhumerus 24.6336 -7.22602 78.0445
lradius 81.009
lwrist -26.4957
lhand 13.345 -16.4371
lfingers 7.12502
lthumb 38.2916 9.28223
rfemur -37.3235 -20.6784 4.85223
rtibia 69.6428
rfoot -25.4646 1.19823
rtoes -14.4077
lfemur -41.0282 20.3018 -7.31254
ltibia 72.9969
lfoot -29.5622 -3.60027
ltoes -17.358
249
root 1.94968 14.2128 -1.14284 25.3425 -88.2644 -28.7131
lowerback 11.4236 0.39751 -0.53339
upperback 4.61626 0.285747 -0.315759
thorax -1.59063 0.0646075 -0.0605192
lowerneck -6.63818 -2.16376 -3.99363
upperneck 5.46146 -3.39669 10.9813
head 2.96959 -1.40245 3.8247
rclavicle -1.19271e-015 6.36111e-015
rhumerus 17.9479 4.59892 -77.0521
rradius 88.7894
rwrist 6.16876
rhand -2.45043 -50.6288
rfingers 7.12502
rthumb 23.2413 -79.2463
lclavicle -1.19271e-015 6.36111e-015
lhumerus 24.6503 -7.26757 78.036
lradius 80.9678
lwrist -26.5104
lhand 13.2831 -16.4286
lfingers 7.12502
lthumb 38.2331 9.30678
rfemur -37.2823 -20.6672 5.01148
rtibia 69.5709
rfoot -25.4668 1.26163
rtoes -13.8934
lfemur -40.9987 20.3063 -7.16198
ltibia 72.9597
lfoot -29.5716 -3.59565
ltoes -17.2871
250
root 1.94891 14.2181 -1.14093 22.89 -88.2588 -26.2096
lowerback 11.3503 0.383351 -0.559862
upperback 4.63002 0.264538 -0.337002
thorax -1.53648 0.053913 -0.0646793
lowerneck -6.68007 -2.17181 -3.88416
upperneck 5.39982 -3.40004 10.8458
head 2.95423 -1.40643 3.76431
rclavicle -1.63997e-015 0
rhumerus 18.0356 4.56045 -77.0471
rradius 88.7399
rwrist 6.14588
rhand -2.53141 -50.6092
rfingers 7.12502
rthumb 23.1636 -79.2365
lclavicle -1.63997e-015 0
lhumerus 24.6821 -7.2495 78.0361
lradius 80.906
lwrist -26.5011
lhand 13.149 -16.496
lfingers 7.12502
lthumb 38.1065 9.27415
rfemur -37.2988 -20.7141 4.92224
rtibia 69.5123
rfoot -25.4282 1.40021
rtoes -13.4658
lfemur -41.0229 20.2525 -7.28489
ltibia 72.9259
lfoot -29.6007 -3.47458
ltoes -17.2248
251
root 1.94718 14.219 -1.13736 20.092 -88.3159 -23.418
lowerback 11.3047 0.37728 -0.614042
upperback 4.67405 0.249069 -0.362926
thorax -1.46601 0.0449108 -0.0588834
lowerneck -6.7579 -2.1758 -3.85963
upperneck 5.39051 -3.39893 10.7719
head 2.96255 -1.40545 3.737
rclavicle 1.68967e-015 3.18055e-015
rhumerus 18.1262 4.58542 -77.0044
rradius 88.7451
rwrist 6.25925
rhand -2.30067 -50.665
rfingers 7.12502
rthumb 23.385 -79.2643
lclavicle 1.68967e-015 3.18055e-015
lhumerus 24.7055 -7.19793 78.0209
lradius 80.8838
lwrist -26.3939
lhand 13.1195 -16.4512
lfingers 7.12502
lthumb 38.0787 9.32657
rfemur -37.2429 -20.7437 4.7895
rtibia 69.4668
rfoot -25.4153 1.38031
rtoes -13.9436
lfemur -40.9633 20.2113 -7.40773
ltibia 72.8938
lfoot -29.6473 -3.49735
ltoes -17.0865
